<?xml version="1.0"?>
<svg xmlns="http://www.w3.org/2000/svg" xmlns:xlink="http://www.w3.org/1999/xlink" version="1.1" id="Capa_1" x="0px" y="0px" viewBox="0 0 512 512" style="enable-background:new 0 0 512 512;" xml:space="preserve" width="512px" height="512px" class=""><g transform="matrix(-1 1.22465e-16 -1.22465e-16 -1 512 512)"><g>
	<path style="fill:#323334" d="M326.62,370.719l77.178-30.896c6.691-2.675,11.087-9.154,11.096-16.366V300.1l-88.274,35.31V370.719   z" data-original="#E38100" class="" data-old_color="#E38100"/>
	<path style="fill:#323334" d="M185.381,370.719v-35.31L97.106,300.1v23.357c0.009,7.212,4.405,13.691,11.096,16.366   L185.381,370.719z" data-original="#E38100" class="" data-old_color="#E38100"/>
</g><path style="fill:#323334" d="M190.898,491.902l30.331,12.994c22.21,9.472,47.333,9.472,69.543,0l30.331-12.95  c34.886-14.839,56.328-50.378,53.185-88.16l-12.358-147.824l12.694-151.699c2.966-35.875-16.251-69.94-48.498-85.944l-6.965-3.469  c-39.776-19.8-86.544-19.8-126.321,0l-6.965,3.469c-32.247,16.004-51.464,50.069-48.498,85.944l12.694,151.699l-12.358,147.86  C134.605,441.577,156.038,477.072,190.898,491.902z" data-original="#FFBC05" class="" data-old_color="#FFBC05"/><path style="fill:#323334" d="M138.33,396.23c49.672,65.508,133.921,94.63,213.439,73.771  c-8.518,9.428-18.979,16.905-30.667,21.901l-30.331,12.994c-22.21,9.472-47.333,9.472-69.543,0l-30.331-12.95  c-34.886-14.839-56.328-50.378-53.185-88.16L138.33,396.23z" data-original="#E38100" class="" data-old_color="#E38100"/><path style="fill:#23AEC8;" d="M324.36,368.795l2.26-1.474c5.455-3.619,8.457-9.957,7.803-16.472l-7.803-77.337H185.381  l-7.768,77.337c-0.662,6.506,2.33,12.844,7.768,16.472l2.225,1.474C229.032,396.319,282.924,396.319,324.36,368.795z" data-original="#23AEC8"/><path style="fill:#1967A3;" d="M323.027,369.607c-41.277,26.668-94.436,26.35-135.386-0.812l-2.26-1.474  c-5.455-3.619-8.457-9.957-7.803-16.472l5.941-59.144C217.389,335.674,267.82,363.834,323.027,369.607z" data-original="#1967A3"/><path style="fill:#23AEC8;" d="M326.62,150.033H185.381l-6.779-40.677c-1.227-7.362,2.304-14.707,8.827-18.335l17.116-9.507  c31.991-17.778,70.902-17.778,102.893,0l17.116,9.507c6.523,3.628,10.054,10.972,8.827,18.335L326.62,150.033z" data-original="#23AEC8"/><path style="fill:#1967A3;" d="M187.437,91.022l8.624-4.793c34.692,30.605,76.19,52.479,121.042,63.805H185.381l-6.779-40.677  C177.365,101.994,180.905,94.65,187.437,91.022z" data-original="#1967A3"/><g>
	
		<rect x="285.98" y="423.671" transform="matrix(-0.5547 0.8321 -0.8321 -0.5547 853.9575 407.9586)" style="fill:#555160" width="63.657" height="17.656" data-original="#555160" class="active-path"/>
	
		<rect x="185.38" y="400.698" transform="matrix(-0.8321 0.5547 -0.5547 -0.8321 595.7145 684.6945)" style="fill:#555160" width="17.656" height="63.657" data-original="#555160" class="active-path"/>
</g></g> </svg>
